<svg xmlns="http://www.w3.org/2000/svg" viewBox="0 0 343.43 461.03"><defs><style>.cls-1{fill:#f4aa67;}.cls-2{fill:#fa8605;}.cls-3{opacity:0.68;}.cls-4{fill:#d17820;}.cls-5{fill:#5b4a3f;}</style></defs><title>Ativo 2</title><g id="Camada_2" data-name="Camada 2"><g id="Camada_1-2" data-name="Camada 1"><path class="cls-1" d="M215.43,256H.43V128a128,128,0,0,1,128-128h87a128,128,0,0,1,128,128h0A128,128,0,0,1,215.43,256Z"/><path class="cls-2" d="M215.43,388H.43V260a128,128,0,0,1,128-128h87a128,128,0,0,1,128,128h0A128,128,0,0,1,215.43,388Z"/><g class="cls-3"><path class="cls-4" d="M127.93,132A128,128,0,0,0,0,256H214.93a127.93,127.93,0,0,0,109.69-62,127.93,127.93,0,0,0-109.69-62Z"/></g><path class="cls-5" d="M54.38,437.16A13.34,13.34,0,0,1,57,445.48a12.48,12.48,0,0,1-5.72,11q-5.73,3.87-16.56,3.87H5.48V406.17h27.7q10.37,0,15.79,3.83a12,12,0,0,1,5.41,10.33,12.92,12.92,0,0,1-1.89,6.93,13.24,13.24,0,0,1-5.38,4.83A15.27,15.27,0,0,1,54.38,437.16ZM20.65,417.24v10.44H31.17q7.74,0,7.74-5.26t-7.74-5.18Zm20.89,26.54q0-5.5-8-5.5H20.65v11H33.49Q41.55,449.27,41.54,443.78Z"/><path class="cls-5" d="M98.1,422.46q5.49,4.76,5.49,14.58v23.29H89.89v-5.41Q86.73,461,77.51,461a19.45,19.45,0,0,1-8.43-1.7,12.49,12.49,0,0,1-5.37-4.61,12.12,12.12,0,0,1-1.82-6.61,10.76,10.76,0,0,1,4.56-9.25q4.56-3.28,14.08-3.28h8.36q-.39-6.66-8.9-6.66a20.23,20.23,0,0,0-6.11,1,16.07,16.07,0,0,0-5.26,2.67l-5-10a27.28,27.28,0,0,1,8.47-3.6,40.26,40.26,0,0,1,10-1.28Q92.6,417.7,98.1,422.46Zm-12,28.05a6.93,6.93,0,0,0,2.79-3.64v-3.64H82.54q-6.42,0-6.42,4.26a3.73,3.73,0,0,0,1.47,3.09,6.3,6.3,0,0,0,4,1.17A8.17,8.17,0,0,0,86.1,450.51Z"/><path class="cls-5" d="M117.75,459.83a27.28,27.28,0,0,1-8.2-3.13L114,446.64a24.44,24.44,0,0,0,6.8,2.82,30.32,30.32,0,0,0,7.82,1.05,12.53,12.53,0,0,0,5.07-.74,2.31,2.31,0,0,0,1.5-2.13c0-.92-.6-1.58-1.81-2a38.76,38.76,0,0,0-5.77-1.12,55.54,55.54,0,0,1-8.55-1.63,13.11,13.11,0,0,1-6.07-3.71q-2.55-2.7-2.55-7.58a11.47,11.47,0,0,1,2.4-7.16,15.81,15.81,0,0,1,7-5,30,30,0,0,1,11-1.82,44.48,44.48,0,0,1,9.05.93,26.23,26.23,0,0,1,7.51,2.63l-4.41,10a24.48,24.48,0,0,0-12.07-3.09,12.11,12.11,0,0,0-5.11.81,2.42,2.42,0,0,0-1.62,2.13c0,1,.59,1.66,1.78,2.05a42.45,42.45,0,0,0,5.88,1.2,64.24,64.24,0,0,1,8.59,1.78,13.1,13.1,0,0,1,5.91,3.67q2.52,2.67,2.52,7.47a11.35,11.35,0,0,1-2.4,7.08,15.65,15.65,0,0,1-7.08,4.91A31.64,31.64,0,0,1,128.11,461,45.12,45.12,0,0,1,117.75,459.83Z"/><path class="cls-5" d="M197.82,443.08H167.34a8.52,8.52,0,0,0,3.6,5,12,12,0,0,0,6.69,1.74,14.42,14.42,0,0,0,5.22-.85,15.54,15.54,0,0,0,4.45-2.79l7.74,8.05Q188.92,461,177.17,461a28.48,28.48,0,0,1-12.92-2.79,21.17,21.17,0,0,1-.47-37.75,26.39,26.39,0,0,1,23.21-.2,19.72,19.72,0,0,1,8.09,7.51,22.1,22.1,0,0,1,3,11.64C198.06,439.55,198,440.76,197.82,443.08Zm-27.81-13a8.75,8.75,0,0,0-2.9,5.26h17.17a8.75,8.75,0,0,0-2.9-5.26,9.34,9.34,0,0,0-11.37,0Z"/><path class="cls-5" d="M241.85,449.81H219l-4.26,10.52H199.06L223,406.17h15.09l24,54.16H246.1Zm-4.49-11.3-7-17.33-7,17.33Z"/><path class="cls-5" d="M303.9,408.61a19.11,19.11,0,0,1,0,35.13,31,31,0,0,1-12.77,2.43h-9.44v14.16H266.37V406.17h24.76A31,31,0,0,1,303.9,408.61Zm-6.58,23.44a7.25,7.25,0,0,0,2.4-5.84,7.4,7.4,0,0,0-2.4-5.88q-2.4-2.08-7.12-2.09h-8.51V434.1h8.51Q294.93,434.1,297.32,432.05Z"/><path class="cls-5" d="M322.62,406.17h15.32v54.16H322.62Z"/></g></g></svg>